<svg xmlns="http://www.w3.org/2000/svg" viewBox="0 0 256 256" role="img" aria-labelledby="title desc">
  <title id="title">Yet AI icon</title>
  <desc id="desc">A rounded square product mark with a stylized Y, local node accent, and small AI spark.</desc>
  <defs>
    <linearGradient id="bg" x1="36" y1="28" x2="220" y2="228" gradientUnits="userSpaceOnUse">
      <stop offset="0" stop-color="#E7F0FF"/>
      <stop offset="0.55" stop-color="#CDE7DF"/>
      <stop offset="1" stop-color="#F5D6B8"/>
    </linearGradient>
    <linearGradient id="yMark" x1="72" y1="58" x2="184" y2="205" gradientUnits="userSpaceOnUse">
      <stop offset="0" stop-color="#18304A"/>
      <stop offset="1" stop-color="#265E62"/>
    </linearGradient>
    <filter id="softShadow" x="-20%" y="-20%" width="140%" height="140%">
      <feDropShadow dx="0" dy="8" stdDeviation="8" flood-color="#142338" flood-opacity="0.18"/>
    </filter>
  </defs>
  <rect width="256" height="256" rx="56" fill="#102033"/>
  <rect x="16" y="16" width="224" height="224" rx="44" fill="url(#bg)"/>
  <path d="M66 73c0-8 6-14 14-14h5c5 0 10 3 13 8l31 49 31-49c3-5 8-8 13-8h5c8 0 14 6 14 14 0 3-1 6-3 9l-42 65v43c0 9-7 16-16 16h-4c-9 0-16-7-16-16v-43L69 82c-2-3-3-6-3-9Z" fill="url(#yMark)" filter="url(#softShadow)"/>
  <path d="M88 86h-9v30h30v-9H88V86Z" fill="#FCFAF7" opacity="0.92"/>
  <path d="M177 86h-9v21h-21v9h30V86Z" fill="#FCFAF7" opacity="0.74"/>
  <circle cx="84" cy="112" r="9" fill="#5D8CFF"/>
  <circle cx="172" cy="112" r="7" fill="#FFB45D"/>
  <path d="M201 52l5 14 14 5-14 5-5 14-5-14-14-5 14-5 5-14Z" fill="#FCFAF7"/>
  <path d="M54 176c0-6 5-11 11-11h33c6 0 11 5 11 11s-5 11-11 11H65c-6 0-11-5-11-11Z" fill="#FCFAF7" opacity="0.8"/>
  <path d="M151 176c0-6 5-11 11-11h29c6 0 11 5 11 11s-5 11-11 11h-29c-6 0-11-5-11-11Z" fill="#FCFAF7" opacity="0.72"/>
</svg>
